<svg width="30" height="30" viewBox="0 0 30 30" fill="none" xmlns="http://www.w3.org/2000/svg">
<path d="M25 19.8V4.2C25 3.45 24.5714 3 23.8571 3H9.28571C6.85714 3 5 4.95 5 7.5V22.5C5 25.05 6.85714 27 9.28571 27H23.8571C24.4286 27 25 26.55 25 25.8V25.05C25 24.75 24.8571 24.45 24.5714 24.15C24.4286 23.4 24.4286 21.3 24.5714 20.7C24.8571 20.55 25 20.25 25 19.8ZM11.4286 9.75C11.4286 9.33563 11.7482 9 12.1429 9H14.2857V6.75C14.2857 6.33562 14.6054 6 15 6H16.4286C16.8232 6 17.1429 6.33562 17.1429 6.75V9H19.2857C19.6804 9 20 9.33563 20 9.75V11.25C20 11.6644 19.6804 12 19.2857 12H17.1429V17.25C17.1429 17.6644 16.8232 18 16.4286 18H15C14.6054 18 14.2857 17.6644 14.2857 17.25V12H12.1429C11.7482 12 11.4286 11.6644 11.4286 11.25V9.75ZM22 24H9.28571C8.42857 24 7.85714 23.4 7.85714 22.5C7.85714 21.6 8.57143 21 9.28571 21H22V24Z" fill="#A1ABC8"/>
</svg>
