<svg width="30" height="30" viewBox="0 0 30 30" fill="none" xmlns="http://www.w3.org/2000/svg">
<path d="M14.6818 10.1885L7.00032 16.9683V24.2856C7.00032 24.4751 7.07055 24.6568 7.19556 24.7908C7.32058 24.9247 7.49013 25 7.66693 25L12.3357 24.9871C12.512 24.9861 12.6807 24.9104 12.805 24.7766C12.9292 24.6427 12.999 24.4615 12.999 24.2727V19.9994C12.999 19.81 13.0693 19.6283 13.1943 19.4943C13.3193 19.3603 13.4888 19.2851 13.6656 19.2851H16.3321C16.5089 19.2851 16.6785 19.3603 16.8035 19.4943C16.9285 19.6283 16.9987 19.81 16.9987 19.9994V24.2696C16.9984 24.3636 17.0155 24.4567 17.0489 24.5436C17.0822 24.6306 17.1313 24.7096 17.1932 24.7761C17.2552 24.8427 17.3287 24.8955 17.4097 24.9316C17.4908 24.9676 17.5776 24.9862 17.6653 24.9862L22.3325 25C22.5093 25 22.6788 24.9247 22.8038 24.7908C22.9289 24.6568 22.9991 24.4751 22.9991 24.2856V16.9634L15.3193 10.1885C15.229 10.1105 15.1165 10.068 15.0005 10.068C14.8846 10.068 14.7721 10.1105 14.6818 10.1885ZM26.8155 14.7966L23.3324 11.7199V5.53577C23.3324 5.39368 23.2797 5.2574 23.186 5.15692C23.0922 5.05645 22.965 5 22.8324 5H20.4993C20.3667 5 20.2395 5.05645 20.1458 5.15692C20.052 5.2574 19.9993 5.39368 19.9993 5.53577V8.77765L16.2692 5.48889C15.9112 5.17322 15.462 5.00063 14.9985 5.00063C14.5349 5.00063 14.0857 5.17322 13.7277 5.48889L3.18144 14.7966C3.13082 14.8415 3.08893 14.8966 3.05818 14.9588C3.02743 15.021 3.00842 15.089 3.00223 15.1591C2.99604 15.2292 3.00279 15.2999 3.0221 15.3671C3.04142 15.4344 3.07291 15.497 3.11478 15.5512L4.1772 16.9353C4.21896 16.9897 4.27033 17.0347 4.32835 17.0678C4.38638 17.101 4.44994 17.1215 4.51538 17.1282C4.58082 17.135 4.64686 17.1279 4.70973 17.1072C4.77259 17.0866 4.83104 17.0529 4.88173 17.008L14.6818 8.35796C14.7721 8.27998 14.8846 8.23745 15.0005 8.23745C15.1165 8.23745 15.229 8.27998 15.3193 8.35796L25.1198 17.008C25.1704 17.0529 25.2287 17.0867 25.2915 17.1074C25.3543 17.1281 25.4202 17.1353 25.4856 17.1287C25.551 17.122 25.6145 17.1016 25.6726 17.0687C25.7306 17.0357 25.782 16.9909 25.8239 16.9366L26.8863 15.5525C26.9281 15.498 26.9595 15.4351 26.9786 15.3675C26.9976 15.3 27.0041 15.229 26.9975 15.1588C26.9909 15.0886 26.9714 15.0204 26.9402 14.9582C26.909 14.8961 26.8666 14.8412 26.8155 14.7966Z" fill="#A1ABC8"/>
</svg>
