<svg width="30" height="30" viewBox="0 0 30 30" fill="none" xmlns="http://www.w3.org/2000/svg">
<path d="M3.85714 8.67347H26.1429C26.6163 8.67347 27 8.30801 27 7.85714V5.81633C27 5.36546 26.6163 5 26.1429 5H3.85714C3.38373 5 3 5.36546 3 5.81633V7.85714C3 8.30801 3.38373 8.67347 3.85714 8.67347ZM3.85714 16.8367H26.1429C26.6163 16.8367 27 16.4713 27 16.0204V13.9796C27 13.5287 26.6163 13.1633 26.1429 13.1633H3.85714C3.38373 13.1633 3 13.5287 3 13.9796V16.0204C3 16.4713 3.38373 16.8367 3.85714 16.8367ZM3.85714 25H26.1429C26.6163 25 27 24.6345 27 24.1837V22.1429C27 21.692 26.6163 21.3265 26.1429 21.3265H3.85714C3.38373 21.3265 3 21.692 3 22.1429V24.1837C3 24.6345 3.38373 25 3.85714 25Z" fill="#A1ABC8"/>
</svg>
