<svg width="30" height="30" viewBox="0 0 30 30" fill="none" xmlns="http://www.w3.org/2000/svg">
<path d="M13.2 12.7472C12.54 12.7472 12 13.2534 12 13.8722V16.6847C12 16.9954 11.7315 17.2472 11.4 17.2472C11.0685 17.2472 10.8 16.9954 10.8 16.6847V13.9934C10.8 13.3821 10.977 12.7816 11.3134 12.2571L14.229 7.70116C14.5699 7.16819 14.3861 6.47737 13.8176 6.15745C13.2758 5.85264 12.5906 6.00628 12.2314 6.48124C12.2239 6.48932 12.2081 6.48862 12.2018 6.49811L7.8045 12.6821C7.4085 13.239 7.2 13.8862 7.2 14.5535V17.3741L3.8205 18.4302C3.58154 18.5047 3.37368 18.6479 3.2264 18.8394C3.07912 19.0309 2.99991 19.2611 3 19.4972V22.8722C3 23.2526 3.3195 23.9972 4.2 23.9972C4.30088 23.9972 4.40288 23.9852 4.50225 23.961L11.2219 22.322C13.0935 21.8203 14.4 20.1964 14.4 18.3722V13.8722C14.4 13.2534 13.86 12.7472 13.2 12.7472ZM26.1795 18.433L22.8 17.3769V14.5563C22.8 13.889 22.5915 13.2418 22.1955 12.6849L17.7983 6.50128C17.7915 6.49179 17.7761 6.49284 17.7686 6.4844C17.4094 6.00944 16.7243 5.85581 16.1824 6.16061C15.6139 6.48018 15.4301 7.17136 15.771 7.70433L18.6866 12.2602C19.023 12.7848 19.2 13.3852 19.2 13.9966V16.6878C19.2 16.9986 18.9315 17.2503 18.6 17.2503C18.2685 17.2503 18 16.9986 18 16.6878V13.8753C18 13.2566 17.46 12.7503 16.8 12.7503C16.14 12.7503 15.6 13.2566 15.6 13.8753V18.3753C15.6 20.1996 16.9065 21.8235 18.7781 22.3248L25.4978 23.9638C25.5975 23.988 25.6995 24 25.8 24C26.6805 24 27 23.2554 27 22.875V19.5C27 19.0159 26.6696 18.5863 26.1795 18.433Z" fill="#A1ABC8"/>
</svg>
